<?xml version="1.0" standalone="no"?>
<!DOCTYPE svg PUBLIC "-//W3C//DTD SVG 20010904//EN"
 "http://www.w3.org/TR/2001/REC-SVG-20010904/DTD/svg10.dtd">
<svg version="1.0" xmlns="http://www.w3.org/2000/svg"
 width="512.000000pt" height="512.000000pt" viewBox="0 0 512.000000 512.000000"
 preserveAspectRatio="xMidYMid meet">

<g transform="translate(0.000000,512.000000) scale(0.100000,-0.100000)"
fill="#000000" stroke="none">
<path d="M575 5106 c-37 -16 -70 -52 -84 -89 -7 -18 -11 -173 -11 -442 l0
-414 -37 -7 c-87 -16 -168 -85 -191 -163 -17 -55 -17 -2807 0 -2862 23 -78
104 -147 190 -163 l37 -7 3 -429 c3 -415 4 -429 24 -456 11 -15 33 -37 48 -48
l27 -21 1979 0 1979 0 27 21 c15 11 37 33 48 48 20 27 21 41 24 456 l3 429 37
7 c86 16 167 85 190 163 17 55 17 2807 0 2862 -23 78 -104 147 -190 163 l-37
7 -3 429 c-3 415 -4 429 -24 456 -11 15 -33 37 -48 48 l-27 21 -1967 2 c-1624
2 -1972 0 -1997 -11z m1905 -541 l0 -405 -925 0 -925 0 0 405 0 405 925 0 925
0 0 -405z m2010 0 l0 -405 -925 0 -925 0 0 405 0 405 925 0 925 0 0 -405z
m212 -583 l23 -23 3 -379 3 -380 -199 0 c-206 0 -254 -7 -272 -40 -16 -30 -12
-64 10 -88 20 -21 27 -22 241 -22 l219 0 -2 -945 -3 -944 -23 -23 -23 -23
-1839 -5 c-2027 -6 -1862 0 -1876 -67 -5 -26 -1 -37 19 -57 l26 -26 736 0 735
0 0 -405 0 -405 -925 0 -925 0 0 405 0 405 55 0 c46 0 60 4 80 25 32 31 33 74
3 103 -21 19 -37 21 -175 24 -143 3 -154 4 -175 26 l-23 23 -3 944 -2 945
1823 0 c1724 0 1825 1 1840 18 29 32 31 67 4 98 l-25 29 -1821 3 -1821 2 0
368 c0 392 2 405 50 429 20 10 455 12 2132 10 l2107 -2 23 -23z m-212 -3427
l0 -405 -925 0 -925 0 0 405 0 405 925 0 925 0 0 -405z"/>
<path d="M1033 4783 c-81 -28 -153 -135 -153 -226 0 -77 66 -172 144 -208 118
-54 282 20 316 141 54 194 -120 360 -307 293z m145 -169 c54 -60 -8 -152 -85
-127 -67 22 -73 121 -9 149 38 16 64 10 94 -22z"/>
<path d="M1910 4779 c-93 -42 -143 -117 -143 -214 0 -202 230 -309 383 -178
55 47 79 102 80 176 0 98 -46 172 -135 213 -62 29 -125 30 -185 3z m148 -162
c43 -40 18 -117 -42 -133 -28 -7 -81 18 -90 41 -18 48 -3 93 38 111 36 15 62
10 94 -19z"/>
<path d="M3025 4776 c-89 -41 -135 -115 -135 -213 1 -74 25 -129 80 -176 153
-131 383 -24 383 178 0 170 -175 283 -328 211z m126 -136 c20 0 49 -41 49 -69
0 -43 -9 -60 -42 -77 -55 -28 -118 10 -118 71 0 43 53 90 88 79 8 -2 18 -4 23
-4z"/>
<path d="M3920 4784 c-118 -51 -175 -170 -140 -294 34 -121 198 -195 316 -141
78 36 144 131 144 208 0 163 -178 289 -320 227z m114 -148 c45 -19 61 -62 38
-107 -40 -77 -152 -48 -152 39 0 32 39 73 78 81 1 1 18 -5 36 -13z"/>
<path d="M769 3589 c-25 -9 -49 -45 -49 -73 0 -7 9 -25 21 -40 l20 -26 234 0
c228 0 235 1 255 22 25 27 26 69 1 99 -19 24 -21 24 -238 26 -124 1 -229 -2
-244 -8z"/>
<path d="M1815 3591 c-52 -22 -66 -90 -26 -123 21 -16 45 -18 252 -18 216 0
230 1 249 20 27 27 26 81 -1 106 -19 17 -40 19 -238 21 -119 1 -225 -2 -236
-6z"/>
<path d="M2860 3593 c-52 -20 -68 -85 -30 -123 19 -19 33 -20 249 -20 207 0
231 2 252 18 30 25 30 75 0 105 -21 21 -30 22 -239 24 -119 1 -224 -1 -232 -4z"/>
<path d="M3893 3590 c-45 -18 -57 -81 -23 -118 20 -21 27 -22 255 -22 l234 0
20 26 c12 15 21 33 21 40 0 29 -25 64 -53 74 -36 12 -422 13 -454 0z"/>
<path d="M833 2790 c-78 -16 -130 -57 -169 -130 -17 -31 -19 -64 -22 -279 l-3
-244 -29 -29 c-42 -42 -52 -88 -48 -213 3 -96 6 -114 26 -143 48 -67 51 -67
414 -67 316 0 327 1 355 21 63 47 73 75 73 211 0 134 -8 165 -55 201 l-25 20
0 238 c0 267 -5 288 -71 351 -59 56 -98 66 -259 69 -80 2 -164 -1 -187 -6z
m334 -174 c28 -24 28 -25 31 -160 l4 -136 -201 0 -201 0 0 135 c0 131 1 137
25 160 23 24 28 25 169 25 139 0 146 -1 173 -24z"/>
<path d="M1871 2790 c-89 -19 -160 -89 -180 -180 -6 -25 -11 -141 -11 -259 l0
-214 -34 -38 c-41 -45 -50 -90 -44 -218 5 -101 24 -144 78 -176 33 -19 51 -20
360 -20 363 0 360 -1 410 72 22 32 24 46 25 147 0 130 -5 154 -44 199 l-30 33
-6 225 c-3 123 -8 238 -11 255 -8 53 -59 118 -116 149 -51 28 -59 29 -203 32
-82 1 -170 -2 -194 -7z m322 -161 c39 -18 47 -50 47 -184 l0 -125 -200 0 -200
0 0 134 c0 131 1 134 26 160 26 26 29 26 165 26 80 0 148 -5 162 -11z"/>
<path d="M2920 2791 c-87 -18 -173 -100 -184 -175 -3 -17 -8 -132 -11 -255
l-6 -225 -30 -33 c-39 -45 -44 -69 -44 -199 1 -101 3 -115 25 -147 50 -73 47
-72 410 -72 309 0 327 1 360 20 54 32 73 75 78 176 6 128 -3 173 -44 218 l-34
38 0 211 c0 116 -5 234 -11 262 -14 66 -62 127 -123 159 -45 23 -61 25 -200
28 -83 1 -167 -2 -186 -6z m334 -177 c25 -26 26 -29 26 -160 l0 -134 -200 0
-200 0 0 125 c0 131 8 166 44 183 11 6 85 11 162 11 140 1 142 1 168 -25z"/>
<path d="M3963 2790 c-56 -12 -91 -31 -130 -72 -59 -61 -63 -83 -63 -344 l0
-236 -25 -20 c-47 -36 -55 -67 -55 -201 0 -136 10 -164 73 -211 28 -20 39 -21
355 -21 363 0 366 0 414 67 20 29 23 47 26 143 4 125 -6 171 -48 213 l-29 29
-3 244 c-3 228 -4 247 -25 284 -27 52 -68 90 -118 111 -46 20 -300 29 -372 14z
m332 -175 c24 -23 25 -29 25 -160 l0 -135 -201 0 -201 0 4 136 c3 135 3 136
31 160 27 23 34 24 173 24 141 0 146 -1 169 -25z"/>
<path d="M1024 771 c-78 -36 -144 -131 -144 -208 0 -162 175 -287 317 -228
120 50 178 170 143 295 -34 121 -198 195 -316 141z m129 -142 c44 -20 59 -77
31 -117 -24 -35 -59 -44 -98 -28 -78 33 -54 151 31 155 7 1 23 -4 36 -10z"/>
<path d="M1905 771 c-151 -69 -187 -270 -68 -383 71 -67 172 -85 258 -44 89
41 135 115 135 213 -1 74 -25 129 -80 176 -69 59 -167 74 -245 38z m128 -143
c69 -36 60 -125 -15 -151 -24 -9 -76 11 -88 33 -23 44 -8 95 35 118 26 15 41
15 68 0z"/>
<path d="M3045 779 c-45 -12 -115 -77 -136 -123 -22 -49 -25 -143 -6 -189 22
-52 68 -98 122 -123 153 -72 328 41 328 211 0 161 -150 270 -308 224z m114
-154 c41 -20 54 -71 31 -115 -12 -22 -64 -42 -88 -33 -74 26 -84 113 -17 151
27 15 41 15 74 -3z"/>
<path d="M3904 766 c-188 -87 -177 -349 19 -431 142 -59 317 66 317 228 0 44
-31 115 -67 152 -74 76 -174 95 -269 51z m131 -136 c14 -5 32 -24 39 -42 38
-90 -82 -157 -138 -76 -19 27 -20 48 -5 82 18 39 58 53 104 36z"/>
</g>
</svg>
